<mxfile host="65bd71144e">
    <diagram id="elhfV3wgOFtBAhaUHd_U" name="Page-1">
        <mxGraphModel dx="1089" dy="771" grid="1" gridSize="10" guides="1" tooltips="1" connect="1" arrows="1" fold="1" page="1" pageScale="1" pageWidth="827" pageHeight="1169" math="0" shadow="0">
            <root>
                <mxCell id="0"/>
                <mxCell id="1" parent="0"/>
                <mxCell id="10" value="" style="image;html=1;image=img/lib/clip_art/computers/Virtual_Application_128x128.png" vertex="1" parent="1">
                    <mxGeometry x="530" y="607.2" width="50" height="35.6" as="geometry"/>
                </mxCell>
                <mxCell id="45" value="" style="group" vertex="1" connectable="0" parent="1">
                    <mxGeometry x="82.19999999999997" y="560" width="60" height="88.80000000000001" as="geometry"/>
                </mxCell>
                <mxCell id="46" value="" style="shadow=0;dashed=0;html=1;strokeColor=none;fillColor=#4495D1;labelPosition=center;verticalLabelPosition=bottom;verticalAlign=top;align=center;outlineConnect=0;shape=mxgraph.veeam.portal_admin;" vertex="1" parent="45">
                    <mxGeometry x="7.800000000000026" y="40" width="44.4" height="48.8" as="geometry"/>
                </mxCell>
                <mxCell id="47" value="Super Admin" style="text;strokeColor=none;align=center;fillColor=none;html=1;verticalAlign=middle;whiteSpace=wrap;rounded=0;" vertex="1" parent="45">
                    <mxGeometry width="60" height="30" as="geometry"/>
                </mxCell>
                <mxCell id="50" value="API Service" style="shape=umlFrame;whiteSpace=wrap;html=1;" vertex="1" parent="1">
                    <mxGeometry x="240" y="530" width="800" height="370" as="geometry"/>
                </mxCell>
                <mxCell id="62" style="edgeStyle=orthogonalEdgeStyle;html=1;entryX=0;entryY=0.5;entryDx=0;entryDy=0;entryPerimeter=0;startArrow=classicThin;startFill=1;" edge="1" parent="1" source="49" target="59">
                    <mxGeometry relative="1" as="geometry"/>
                </mxCell>
                <mxCell id="49" value="Super Admin Panel" style="shape=umlFrame;whiteSpace=wrap;html=1;" vertex="1" parent="1">
                    <mxGeometry x="300" y="560" width="290" height="90" as="geometry"/>
                </mxCell>
                <mxCell id="52" style="edgeStyle=orthogonalEdgeStyle;html=1;entryX=-0.006;entryY=0.257;entryDx=0;entryDy=0;entryPerimeter=0;" edge="1" parent="1" source="46" target="50">
                    <mxGeometry relative="1" as="geometry"/>
                </mxCell>
                <mxCell id="53" value="" style="group" vertex="1" connectable="0" parent="1">
                    <mxGeometry x="80" y="700" width="60" height="80" as="geometry"/>
                </mxCell>
                <mxCell id="54" value="" style="aspect=fixed;html=1;points=[];align=center;image;fontSize=12;image=img/lib/azure2/management_governance/User_Privacy.svg;" vertex="1" parent="53">
                    <mxGeometry x="6.469999999999999" y="30" width="47.06" height="50" as="geometry"/>
                </mxCell>
                <mxCell id="55" value="Admin" style="text;strokeColor=none;align=center;fillColor=none;html=1;verticalAlign=middle;whiteSpace=wrap;rounded=0;" vertex="1" parent="53">
                    <mxGeometry width="60" height="30" as="geometry"/>
                </mxCell>
                <mxCell id="56" style="edgeStyle=orthogonalEdgeStyle;html=1;entryX=-0.004;entryY=0.259;entryDx=0;entryDy=0;entryPerimeter=0;" edge="1" parent="1" source="54" target="50">
                    <mxGeometry relative="1" as="geometry"/>
                </mxCell>
                <mxCell id="69" style="edgeStyle=orthogonalEdgeStyle;html=1;entryX=0;entryY=0.5;entryDx=0;entryDy=0;entryPerimeter=0;startArrow=classicThin;startFill=1;" edge="1" parent="1" source="58" target="59">
                    <mxGeometry relative="1" as="geometry"/>
                </mxCell>
                <mxCell id="72" value="knowledge" style="edgeStyle=orthogonalEdgeStyle;html=1;entryX=0;entryY=0.5;entryDx=0;entryDy=0;entryPerimeter=0;startArrow=classicThin;startFill=1;" edge="1" parent="1" source="58" target="70">
                    <mxGeometry relative="1" as="geometry"/>
                </mxCell>
                <mxCell id="58" value="Admin Panel" style="shape=umlFrame;whiteSpace=wrap;html=1;" vertex="1" parent="1">
                    <mxGeometry x="300" y="690" width="290" height="90" as="geometry"/>
                </mxCell>
                <mxCell id="59" value="" style="sketch=0;points=[[0,0,0],[0.25,0,0],[0.5,0,0],[0.75,0,0],[1,0,0],[0,1,0],[0.25,1,0],[0.5,1,0],[0.75,1,0],[1,1,0],[0,0.25,0],[0,0.5,0],[0,0.75,0],[1,0.25,0],[1,0.5,0],[1,0.75,0]];outlineConnect=0;fontColor=#232F3E;gradientColor=#4D72F3;gradientDirection=north;fillColor=#3334B9;strokeColor=#ffffff;dashed=0;verticalLabelPosition=bottom;verticalAlign=top;align=center;html=1;fontSize=12;fontStyle=0;aspect=fixed;shape=mxgraph.aws4.resourceIcon;resIcon=mxgraph.aws4.rds;" vertex="1" parent="1">
                    <mxGeometry x="730" y="622" width="78" height="78" as="geometry"/>
                </mxCell>
                <mxCell id="63" value="CRUD Admin" style="text;strokeColor=none;align=center;fillColor=none;html=1;verticalAlign=middle;whiteSpace=wrap;rounded=0;" vertex="1" parent="1">
                    <mxGeometry x="360" y="570" width="86" height="30" as="geometry"/>
                </mxCell>
                <mxCell id="66" value="Get Reports" style="text;strokeColor=none;align=center;fillColor=none;html=1;verticalAlign=middle;whiteSpace=wrap;rounded=0;" vertex="1" parent="1">
                    <mxGeometry x="360" y="610" width="86" height="30" as="geometry"/>
                </mxCell>
                <mxCell id="67" value="CRUD knowledge" style="text;strokeColor=none;align=center;fillColor=none;html=1;verticalAlign=middle;whiteSpace=wrap;rounded=0;" vertex="1" parent="1">
                    <mxGeometry x="360" y="700" width="86" height="30" as="geometry"/>
                </mxCell>
                <mxCell id="68" value="CRUD bot" style="text;strokeColor=none;align=center;fillColor=none;html=1;verticalAlign=middle;whiteSpace=wrap;rounded=0;" vertex="1" parent="1">
                    <mxGeometry x="360" y="740" width="86" height="30" as="geometry"/>
                </mxCell>
                <mxCell id="70" value="" style="outlineConnect=0;dashed=0;verticalLabelPosition=bottom;verticalAlign=top;align=center;html=1;shape=mxgraph.aws3.s3;fillColor=#E05243;gradientColor=none;" vertex="1" parent="1">
                    <mxGeometry x="740" y="740" width="76.5" height="93" as="geometry"/>
                </mxCell>
                <mxCell id="81" style="edgeStyle=orthogonalEdgeStyle;html=1;entryX=0;entryY=0.5;entryDx=0;entryDy=0;entryPerimeter=0;startArrow=classicThin;startFill=1;" edge="1" parent="1" source="75" target="70">
                    <mxGeometry relative="1" as="geometry"/>
                </mxCell>
                <mxCell id="82" style="edgeStyle=orthogonalEdgeStyle;html=1;entryX=0.006;entryY=0.793;entryDx=0;entryDy=0;entryPerimeter=0;startArrow=classicThin;startFill=1;" edge="1" parent="1" source="75" target="79">
                    <mxGeometry relative="1" as="geometry"/>
                </mxCell>
                <mxCell id="83" value="Create Booking/Quote" style="edgeLabel;html=1;align=center;verticalAlign=middle;resizable=0;points=[];" vertex="1" connectable="0" parent="82">
                    <mxGeometry x="0.207" y="-4" relative="1" as="geometry">
                        <mxPoint as="offset"/>
                    </mxGeometry>
                </mxCell>
                <mxCell id="84" value="Redirection" style="edgeStyle=orthogonalEdgeStyle;html=1;entryX=0;entryY=0.943;entryDx=0;entryDy=0;entryPerimeter=0;startArrow=classicThin;startFill=1;" edge="1" parent="1" source="75" target="79">
                    <mxGeometry relative="1" as="geometry">
                        <Array as="points">
                            <mxPoint x="660" y="875"/>
                            <mxPoint x="660" y="875"/>
                        </Array>
                    </mxGeometry>
                </mxCell>
                <mxCell id="75" value="ChatPanel" style="shape=umlFrame;whiteSpace=wrap;html=1;" vertex="1" parent="1">
                    <mxGeometry x="300" y="800" width="290" height="90" as="geometry"/>
                </mxCell>
                <mxCell id="77" value="Embedded Chatpanel" style="edgeStyle=orthogonalEdgeStyle;html=1;exitX=0.5;exitY=0;exitDx=0;exitDy=0;entryX=0.259;entryY=1.033;entryDx=0;entryDy=0;entryPerimeter=0;startArrow=classicThin;startFill=1;" edge="1" parent="1" source="76" target="75">
                    <mxGeometry x="0.4536" y="-5" relative="1" as="geometry">
                        <mxPoint as="offset"/>
                    </mxGeometry>
                </mxCell>
                <mxCell id="76" value="" style="shape=actor;whiteSpace=wrap;html=1;" vertex="1" parent="1">
                    <mxGeometry x="302.20000000000005" y="1010" width="35.6" height="40" as="geometry"/>
                </mxCell>
                <mxCell id="78" value="completion" style="text;strokeColor=none;align=center;fillColor=none;html=1;verticalAlign=middle;whiteSpace=wrap;rounded=0;" vertex="1" parent="1">
                    <mxGeometry x="370" y="820" width="86" height="30" as="geometry"/>
                </mxCell>
                <mxCell id="79" value="booking server" style="shape=umlFrame;whiteSpace=wrap;html=1;" vertex="1" parent="1">
                    <mxGeometry x="870" y="686.5" width="160" height="200" as="geometry"/>
                </mxCell>
                <mxCell id="2" value="" style="aspect=fixed;html=1;points=[];align=center;image;fontSize=12;image=img/lib/azure2/ai_machine_learning/Bot_Services.svg;container=0;" vertex="1" parent="1">
                    <mxGeometry x="540" y="846.5" width="40" height="40" as="geometry"/>
                </mxCell>
                <mxCell id="85" value="" style="points=[];aspect=fixed;html=1;align=center;shadow=0;dashed=0;image;image=img/lib/allied_telesis/storage/Datacenter_Server_Half_Rack_ToR.svg;" vertex="1" parent="1">
                    <mxGeometry x="890" y="724.0799999999999" width="120" height="155.92" as="geometry"/>
                </mxCell>
                <mxCell id="86" value="" style="sketch=0;aspect=fixed;html=1;points=[];align=center;image;fontSize=12;image=img/lib/mscae/API_Management.svg;" vertex="1" parent="1">
                    <mxGeometry x="950" y="551.2" width="70" height="58.8" as="geometry"/>
                </mxCell>
                <mxCell id="26" value="" style="sketch=0;shadow=0;dashed=0;html=1;strokeColor=none;fillColor=#505050;labelPosition=center;verticalLabelPosition=bottom;verticalAlign=top;outlineConnect=0;align=center;shape=mxgraph.office.databases.address_book_store;container=0;" vertex="1" parent="1">
                    <mxGeometry x="550" y="740" width="30" height="35.6" as="geometry"/>
                </mxCell>
                <mxCell id="87" value="End User" style="text;html=1;align=center;verticalAlign=middle;resizable=0;points=[];autosize=1;strokeColor=none;fillColor=none;" vertex="1" parent="1">
                    <mxGeometry x="290" y="1060" width="70" height="30" as="geometry"/>
                </mxCell>
            </root>
        </mxGraphModel>
    </diagram>
</mxfile>